<svg xmlns="http://www.w3.org/2000/svg" xmlns:xlink="http://www.w3.org/1999/xlink" width="30" height="20" version="1.1" viewBox="0 0 30 20"><title>04CEE680-81BB-46C3-BC45-DFD097BA4D31</title><desc>Created with sketchtool.</desc><g id="Invision-2" fill="none" fill-rule="evenodd" stroke="none" stroke-width="1"><g id="Settings-&gt;-Privacy-and-Security-&gt;-Private-Key" transform="translate(-762.000000, -353.000000)"><g id="Group" transform="translate(150.000000, 261.000000)"><g id="Eye" transform="translate(610.000000, 85.000000)"><rect id="Rectangle" width="34" height="34" x="0" y="0" fill="#000" opacity="0"/><path id="Stroke-1" stroke="#A2A5B5" stroke-linecap="round" stroke-linejoin="round" stroke-width="2.8" d="M17,25.5 C5.95,25.5 4.25,17 4.25,17 C4.25,17 5.95,8.5 17,8.5 C28.05,8.5 29.75,17 29.75,17 C29.75,17 28.05,25.5 17,25.5 Z"/><path id="Stroke-3" stroke="#A2A5B5" stroke-linecap="round" stroke-linejoin="round" stroke-width="2.8" d="M19.8333333,17 C19.8333333,18.564 18.564,19.8333333 17,19.8333333 C15.436,19.8333333 14.1666667,18.564 14.1666667,17 C14.1666667,15.436 15.436,14.1666667 17,14.1666667 C18.564,14.1666667 19.8333333,15.436 19.8333333,17 Z"/></g></g></g></g></svg>