<svg xmlns="http://www.w3.org/2000/svg" xmlns:xlink="http://www.w3.org/1999/xlink" width="24" height="24" version="1.1" viewBox="0 0 24 24"><title>Icons / Info circle@3x</title><desc>Created with Sketch.</desc><g id="Icons-/-Info-circle" fill="none" fill-rule="evenodd" stroke="none" stroke-width="1"><rect id="Rectangle" width="24" height="24" x="0" y="0" fill="#000" opacity="0"/><path id="Stroke-1" stroke="#A2A5B5" stroke-linecap="round" stroke-linejoin="round" stroke-width="2" d="M13.125,21 L10.875,21 C6.526,21 3,17.475 3,13.125 L3,10.875 C3,6.525 6.526,3 10.875,3 L13.125,3 C17.474,3 21,6.525 21,10.875 L21,13.125 C21,17.475 17.474,21 13.125,21 Z"/><path id="Stroke-3" stroke="#A2A5B5" stroke-linecap="round" stroke-linejoin="round" stroke-width="2" d="M12,12 L12,16"/><path id="Fill-5" fill="#A2A5B5" d="M13,8 C13,8.553 12.552,9 12,9 C11.448,9 11,8.553 11,8 C11,7.447 11.448,7 12,7 C12.552,7 13,7.447 13,8"/></g></svg>