<svg xmlns="http://www.w3.org/2000/svg" xmlns:xlink="http://www.w3.org/1999/xlink" width="16" height="12" version="1.1" viewBox="0 0 16 12"><title>List</title><desc>Created with Sketch.</desc><g id="Icons" fill="none" fill-rule="evenodd" stroke="none" stroke-width="1"><g id="Faticons" transform="translate(-559.000000, -319.000000)"><g id="Icons-/-List" transform="translate(554.000000, 313.000000)"><rect id="Rectangle" width="24" height="24" x="0" y="0" fill="#000" fill-rule="evenodd" opacity="0"/><path id="Stroke-1" stroke="#A2A5B5" stroke-linecap="round" stroke-linejoin="round" stroke-width="2" d="M10,7 L15,7"/><path id="Stroke-3" stroke="#A2A5B5" stroke-linecap="round" stroke-linejoin="round" stroke-width="2" d="M10,12 L20,12"/><path id="Stroke-5" stroke="#A2A5B5" stroke-linecap="round" stroke-linejoin="round" stroke-width="2" d="M10,17 L18,17"/><path id="Fill-7" fill="#A2A5B5" fill-rule="evenodd" d="M7,7 C7,7.552 6.553,8 6,8 C5.447,8 5,7.552 5,7 C5,6.448 5.447,6 6,6 C6.553,6 7,6.448 7,7"/><path id="Fill-9" fill="#A2A5B5" fill-rule="evenodd" d="M7,17 C7,17.552 6.553,18 6,18 C5.447,18 5,17.552 5,17 C5,16.448 5.447,16 6,16 C6.553,16 7,16.448 7,17"/><path id="Fill-11" fill="#A2A5B5" fill-rule="evenodd" d="M7,12 C7,12.552 6.553,13 6,13 C5.447,13 5,12.552 5,12 C5,11.448 5.447,11 6,11 C6.553,11 7,11.448 7,12"/></g></g></g></svg>