<svg xmlns="http://www.w3.org/2000/svg" xmlns:xlink="http://www.w3.org/1999/xlink" width="32" height="36" version="1.1" viewBox="0 0 32 36"><title>Lock</title><desc>Created with Sketch.</desc><g id="Invision-2" fill="none" fill-rule="evenodd" stroke="none" stroke-width="1"><g id="Settings-Expanded" transform="translate(-158.000000, -204.000000)"><g id="Group-5" transform="translate(150.000000, 198.000000)"><g id="Icons-/-Lock"><rect id="Rectangle" width="48" height="48" x="0" y="0" fill="#000" fill-rule="evenodd" opacity="0"/><path id="Stroke-1" stroke="#A2A5B5" stroke-linecap="round" stroke-linejoin="round" stroke-width="4" d="M24,40 C12,40 10,38 10,30 C10,22 12,20 24,20 C36,20 38,22 38,30 C38,38 36,40 24,40 Z"/><path id="Stroke-3" stroke="#A2A5B5" stroke-linecap="round" stroke-linejoin="round" stroke-width="4" d="M16.039,20.58 C16.019,19.89 15.999,19.148 15.999,18.354 C15.999,10 17.999,8 23.999,8 C29.999,8 31.999,10 31.999,18.354 C31.999,19.148 31.981,19.89 31.961,20.58"/><path id="Stroke-5" stroke="#A2A5B5" stroke-linecap="round" stroke-linejoin="round" stroke-width="4" d="M24,28 L24,32"/></g></g></g></g></svg>