<svg xmlns="http://www.w3.org/2000/svg" xmlns:xlink="http://www.w3.org/1999/xlink" width="38" height="38" version="1.1" viewBox="0 0 38 38"><title>Arrow right circle Copy 6</title><desc>Created with Sketch.</desc><g id="Invision-2" fill="none" fill-rule="evenodd" stroke="none" stroke-width="1"><g id="Settings-&gt;-Dapp-Permission" transform="translate(-194.000000, -319.000000)"><g id="Icons-/-Tag" transform="translate(213.000000, 338.000000) scale(-1, 1) translate(-213.000000, -338.000000) translate(189.000000, 314.000000)"><rect id="Rectangle" width="48" height="48" x="0" y="0" fill="#000" fill-rule="evenodd" opacity="0"/><path id="Stroke-1" stroke="#A2A5B5" stroke-linecap="round" stroke-linejoin="round" stroke-width="6" d="M24,40 C22,40 8,26 8,24 L8,10 C8,8.894 8.896,8 10,8 L24,8 C26,8 40,22 40,24 C40,26 26,40 24,40 Z"/><path id="Fill-3" fill="#333" fill-rule="evenodd" d="M18,16 C18,17.106 17.104,18 16,18 C14.896,18 14,17.106 14,16 C14,14.894 14.896,14 16,14 C17.104,14 18,14.894 18,16"/></g></g></g></svg>