<svg xmlns="http://www.w3.org/2000/svg" xmlns:xlink="http://www.w3.org/1999/xlink" width="200" height="200" class="icon" p-id="3200" t="1569906902802" version="1.1" viewBox="0 0 1024 1024"><defs><style type="text/css">@font-face{font-weight:400;font-style:normal;font-family:Inter-Loom;src:url(https://cdn.loom.com/assets/fonts/inter/Inter-UI-Regular.woff2) format(&quot;woff2&quot;)}@font-face{font-weight:400;font-style:italic;font-family:Inter-Loom;src:url(https://cdn.loom.com/assets/fonts/inter/Inter-UI-Italic.woff2) format(&quot;woff2&quot;)}@font-face{font-weight:500;font-style:normal;font-family:Inter-Loom;src:url(https://cdn.loom.com/assets/fonts/inter/Inter-UI-Medium.woff2) format(&quot;woff2&quot;)}@font-face{font-weight:500;font-style:italic;font-family:Inter-Loom;src:url(https://cdn.loom.com/assets/fonts/inter/Inter-UI-MediumItalic.woff2) format(&quot;woff2&quot;)}@font-face{font-weight:700;font-style:normal;font-family:Inter-Loom;src:url(https://cdn.loom.com/assets/fonts/inter/Inter-UI-Bold.woff2) format(&quot;woff2&quot;)}@font-face{font-weight:700;font-style:italic;font-family:Inter-Loom;src:url(https://cdn.loom.com/assets/fonts/inter/Inter-UI-BoldItalic.woff2) format(&quot;woff2&quot;)}@font-face{font-weight:900;font-style:normal;font-family:Inter-Loom;src:url(https://cdn.loom.com/assets/fonts/inter/Inter-UI-Black.woff2) format(&quot;woff2&quot;)}@font-face{font-weight:900;font-style:italic;font-family:Inter-Loom;src:url(https://cdn.loom.com/assets/fonts/inter/Inter-UI-BlackItalic.woff2) format(&quot;woff2&quot;)}</style></defs><path fill="#583E82" d="M512 0c282.769408 0 512 229.230592 512 512s-229.230592 512-512 512S0 794.769408 0 512 229.230592 0 512 0z m343.04 210.944H235.52l-46.08 120.832v484.352h166.912v91.136h90.112l91.136-91.136h136.192l181.248-181.248V210.944zM688.128 709.632H522.24l-91.136 91.136v-91.136H294.912V271.36h498.688v332.8L688.128 709.632zM522.24 392.192h-60.416v181.248h60.416V392.192z m165.888 0h-60.416v181.248h60.416V392.192z" p-id="3201"/></svg>