<svg xmlns="http://www.w3.org/2000/svg" xmlns:xlink="http://www.w3.org/1999/xlink" width="100" height="100" version="1.1" viewBox="0 0 100 100"><title>Group 3@1.5x</title><desc>Created with Sketch.</desc><defs><linearGradient id="linearGradient-1" x1="10.704%" x2="83.707%" y1="8.783%" y2="90.627%"><stop offset="0%" stop-color="#07E595"/><stop offset="100%" stop-color="#00C7D3"/></linearGradient><linearGradient id="linearGradient-2" x1="51.1%" x2="51.1%" y1="11.966%" y2="50%"><stop offset="0%" stop-color="#FFF" stop-opacity=".5"/><stop offset="100%" stop-color="#FFF"/></linearGradient><linearGradient id="linearGradient-3" x1="15.906%" x2="50%" y1="65.798%" y2="50%"><stop offset="0%" stop-color="#FFF" stop-opacity=".5"/><stop offset="100%" stop-color="#FFF"/></linearGradient><linearGradient id="linearGradient-4" x1="50%" x2="85.676%" y1="50%" y2="65.679%"><stop offset="0%" stop-color="#FFF"/><stop offset="100%" stop-color="#FFF" stop-opacity=".5"/></linearGradient></defs><g id="Page-1" fill="none" fill-rule="evenodd" stroke="none" stroke-width="1"><g id="Group-3"><rect id="Rectangle" width="100" height="100" x="0" y="0" fill="url(#linearGradient-1)"/><g id="Group" transform="translate(27.000000, 18.000000)"><g id="Group-2"><path id="Fill-4" fill="url(#linearGradient-2)" d="M-1.59872116e-14,57.4721612 L-1.59872116e-14,7.62401308 C-1.59872116e-14,3.49438345 3.34768519,0.146698265 7.47731481,0.146698265 C11.6069444,0.146698265 14.9546296,3.49438345 14.9546296,7.62401308 L14.9546296,57.4721612 C14.9546296,61.6013279 11.6069444,64.949476 7.47731481,64.949476 C3.34768519,64.949476 -1.59872116e-14,61.6013279 -1.59872116e-14,57.4721612 Z"/><path id="Fill-10" fill="url(#linearGradient-3)" d="M1.34583333,61.2892909 C-0.842592593,57.787439 0.222222222,53.174476 3.72407407,50.9855872 L43.6023148,26.0615131 C47.1037037,23.8730872 51.7171296,24.937439 53.9060185,28.4392909 C56.0949074,31.9411427 55.0300926,36.5541057 51.5282407,38.7429946 L11.649537,63.6670686 C10.4175926,64.436976 9.04722222,64.8045686 7.69351852,64.8045686 C5.20092593,64.8045686 2.76481481,63.5587353 1.34583333,61.2892909 Z"/><path id="Fill-7" fill="url(#linearGradient-4)" d="M43.6023148,38.7429946 L3.72407407,13.8189205 C0.222222222,11.6300316 -0.842592593,7.01706864 1.34583333,3.51521678 C3.53472222,0.0133649316 8.14768519,-1.05098692 11.649537,1.13743901 L51.5282407,26.0615131 C55.0300926,28.250402 56.0949074,32.8633649 53.9060185,36.3652168 C52.4875,38.6341983 50.0509259,39.8804946 47.5583333,39.8804946 C46.2046296,39.8804946 44.8347222,39.5133649 43.6023148,38.7429946 Z"/><path id="Fill-4" fill="#FFF" d="M1.42108547e-14,64.8963911 L1.42108547e-14,42.3462353 C1.42108547e-14,38.2166057 3.34768519,34.8689205 7.47731481,34.8689205 C11.6069444,34.8689205 14.9546296,38.2166057 14.9546296,42.3462353 L14.9546296,64.8963911 L1.42108547e-14,64.8963911 Z" transform="translate(7.477315, 49.882656) scale(1, -1) translate(-7.477315, -49.882656)"/></g></g></g></g></svg>